<svg width="24" height="24" viewBox="0 0 24 24" fill="none" xmlns="http://www.w3.org/2000/svg">
<path d="M21.329 7.20698C21.329 5.99498 20.857 4.85498 20 3.99998C19.143 3.14498 18.004 2.67098 16.793 2.67098C15.6022 2.66778 14.4587 3.13669 13.613 3.97498C13.586 3.99998 5.646 11.939 5.646 11.939C5.273 12.312 4.929 12.849 4.679 13.453C4.484 13.926 2.7 19.316 2.343 20.392C2.28497 20.5678 2.27691 20.7564 2.31973 20.9366C2.36255 21.1167 2.45457 21.2815 2.58553 21.4125C2.71648 21.5434 2.88123 21.6354 3.06141 21.6782C3.2416 21.7211 3.43013 21.713 3.606 21.655C4.682 21.3 10.071 19.514 10.544 19.319C11.147 19.071 11.684 18.727 12.059 18.352L14.216 16.196L14.292 16.206C14.932 16.206 15.572 15.962 16.061 15.474L20.561 10.974C20.8901 10.6434 21.1197 10.227 21.2236 9.77225C21.3276 9.31752 21.3017 8.84273 21.149 8.40198C21.256 8.01598 21.329 7.61898 21.329 7.20698ZM9.465 17.586C9.059 17.729 8.32 17.979 7.427 18.277L5.723 16.573C6.024 15.679 6.274 14.939 6.414 14.535L9.465 17.586ZM5.368 17.633L6.367 18.632L4.869 19.131L5.368 17.633ZM13.066 14.52L10.646 16.94L10.411 17.12L6.881 13.591L7.061 13.357L14.192 6.22598L16.923 8.95698L13.233 12.647C12.72 13.159 12.684 13.936 13.066 14.52ZM19.146 9.56098L14.646 14.061C14.5996 14.1075 14.5444 14.1445 14.4836 14.1697C14.4229 14.1949 14.3578 14.2079 14.292 14.2079C14.2262 14.2079 14.1611 14.1949 14.1004 14.1697C14.0396 14.1445 13.9844 14.1075 13.938 14.061C13.8443 13.9672 13.7916 13.8401 13.7916 13.7075C13.7916 13.5749 13.8443 13.4477 13.938 13.354L18.438 8.85398C18.5318 8.76024 18.6589 8.70758 18.7915 8.70758C18.9241 8.70758 19.0512 8.76024 19.145 8.85398C19.2389 8.94761 19.2917 9.07469 19.2919 9.20727C19.2921 9.33985 19.2396 9.46708 19.146 9.56098ZM19.253 7.79698C18.9919 7.70898 18.7115 7.69511 18.443 7.75689C18.1745 7.81868 17.9284 7.95371 17.732 8.14698L17.63 8.24898L14.899 5.51798L14.977 5.43998C15.961 4.45998 17.629 4.45898 18.585 5.41698C18.8212 5.65189 19.0085 5.93131 19.136 6.23908C19.2636 6.54684 19.3288 6.87684 19.328 7.20998C19.329 7.40898 19.298 7.60398 19.253 7.79698Z" fill="white"/>
</svg>
