<svg width="37" height="37" viewBox="0 0 37 37" fill="none" xmlns="http://www.w3.org/2000/svg">
<path d="M18.5 0C16.4907 0 14.9432 1.67647 14.9432 3.68104C14.9432 5.61179 14.9297 7.30109 14.9297 7.30109H11.357C11.2898 7.30109 11.2247 7.30852 11.1605 7.31916H10.1669V10.7902H26.8331V7.31916H25.8395C25.7753 7.30852 25.7102 7.30109 25.643 7.30109H22.0704C22.0704 7.30109 22.111 5.77188 22.111 3.69232C22.111 1.76154 20.5094 0 18.5 0ZM5.40186 3.5207V37H31.5981V3.5207H23.2989V5.94612H29.1999V34.5701H7.80245V5.94612H13.7011V3.5207H5.40186ZM18.5 3.56584C19.1583 3.56584 19.6901 4.09556 19.6901 4.75145C19.6901 5.40854 19.1583 5.9393 18.5 5.9393C17.8417 5.9393 17.3099 5.40851 17.3099 4.75145C17.3099 4.09559 17.8417 3.56584 18.5 3.56584ZM10.1669 13.1433V14.3312H11.357V13.1433H10.1669ZM13.7395 13.1659V14.3537H26.8331V13.1659H13.7395ZM10.1669 17.6238V18.8116H11.357V17.6238H10.1669ZM13.7395 17.6463V18.8365H26.8331V17.6463H13.7395ZM10.1669 22.1043V23.2921H11.357V22.1043H10.1669ZM13.7395 22.1291V23.3169H26.8331V22.1291H13.7395ZM10.1669 26.587V27.7748H11.357V26.587H10.1669ZM13.7395 26.6118V27.7997H26.8331V26.6118H13.7395ZM10.1669 31.0675V32.2553H11.357V31.0675H10.1669ZM13.7395 31.0923V32.2801H26.8331V31.0923H13.7395Z" fill="white"/>
</svg>
